# xmcd
#
# Track frame offsets:
#	2183
#	17341
#	32506
#	45577
#	57126
#	71709
#	94820
#	110378
#	120991
#	137209
#	151960
#	168298
#	181172
#
# Disc length: 2753 seconds
# Revision: 0
# Processed by: cddbd v1.5.2PL0 Copyright (c) Steve Scherf et al.
# Submitted via: dBpowerAMP V12.0
#
DISCID=a40aa40d
DTITLE=Donna Ulisse - An Easy Climb
DYEAR=2011
DGENRE=Country
TTITLE0=Let It Rain
TTITLE1=Hand Me Down Home
TTITLE2=I've Got Nothin' 
TTITLE3=Crawlin' Back
TTITLE4=An Easy Climb
TTITLE5=Black Snake
TTITLE6=Her Heart Is A Stone Hard Ground
TTITLE7=Lonesome Without You
TTITLE8=Where The Cold Wind Blows
TTITLE9=Flat Broke In Arkansas 
TTITLE10=Banks Of Roane River
TTITLE11=Faith Is A Journey
TTITLE12=Shady Glen 
EXTD=
EXTT0=
EXTT1=
EXTT2=
EXTT3=
EXTT4=
EXTT5=
EXTT6=
EXTT7=
EXTT8=
EXTT9=
EXTT10=
EXTT11=
EXTT12=
PLAYORDER=
